<svg width="37" height="32" viewBox="0 0 37 32" fill="none" xmlns="http://www.w3.org/2000/svg">
<path d="M36.3697 0.144587C36.0279 -0.0807165 35.7178 -0.0342252 35.4614 0.225053L35.2861 0.400289C35.2861 0.400289 27.6843 8.00787 20.1292 15.5672C17.0362 10.8948 14.3422 6.82592 13.5335 5.60463C13.3961 5.3972 13.0675 5.20945 12.7204 5.29349C12.42 5.36591 12.2129 5.44191 11.9425 5.60016C11.6711 5.75841 11.502 6.01053 11.5223 6.33865C11.5328 6.50495 11.5381 6.51121 11.5381 6.51121C11.8139 9.83623 11.7302 13.2203 11.2289 16.5328L0.808043 16.4711C0.364921 16.4711 0.0759664 16.6794 0.0125374 17.1568C-0.00596277 17.2945 -0.0033199 17.5725 0.0160612 17.7093C0.0882998 18.2485 0.413374 18.3906 0.81421 18.3906C0.81421 18.3906 2.68977 18.3942 10.8889 18.4532C10.3074 21.3196 9.39827 24.1117 8.12088 26.7438C7.78524 27.418 7.3474 28.0563 6.86992 28.7358C6.64704 29.0523 6.64968 29.3706 6.91485 29.6853C7.04171 29.8355 7.32361 30.093 7.52447 30.1761C7.83017 30.3022 8.18255 30.2208 8.40543 29.9973C9.68282 28.7144 14.2735 24.1251 18.4854 19.9114L28.3283 31.5789C28.5459 31.8623 29.0199 32.1091 29.3802 31.95C29.6956 31.8105 29.8744 31.671 30.0435 31.4153C30.2629 31.0836 30.1863 30.7537 29.9836 30.4497C28.9837 28.9397 25.6097 23.8435 22.0145 18.4121C22.5298 18.4094 24.394 18.3996 25.3621 18.3996C25.7841 18.3996 25.9585 18.1403 26.0343 17.7165C26.0625 17.56 26.0572 17.2355 26.0343 17.0781C25.9779 16.6928 25.8572 16.4433 25.4388 16.3799L22.447 15.948C29.5308 8.85723 36.5512 1.83258 36.5512 1.83258L36.7758 1.60727C37.0163 1.37392 37.0806 1.01898 36.8833 0.672084C36.7917 0.512047 36.523 0.24651 36.3697 0.145481V0.144587ZM13.5811 9.11829L17.6423 15.2525L17.0309 15.1648C16.7375 15.1255 16.5296 15.2292 16.4107 15.4724L15.846 16.514L12.8596 16.5256C13.3168 14.0848 13.5608 11.6038 13.5802 9.11829H13.5811ZM10.1163 25.5869C11.0968 23.2811 11.8817 20.8886 12.4552 18.4452C14.5228 18.4371 15.676 18.4335 17.2353 18.4282L17.2511 18.4478C13.9185 21.7827 11.6562 24.0473 10.1163 25.5887V25.5869Z" fill="white"/>
<path d="M29.1335 18.3879H31.0628C31.5086 18.3879 31.683 18.1671 31.7623 17.7049C31.7861 17.569 31.7737 17.2909 31.7623 17.1523C31.7191 16.6239 31.4619 16.4693 31.0628 16.4693H29.1335C28.6411 16.4693 28.449 16.6972 28.3953 17.1523C28.3794 17.29 28.3829 17.5681 28.3953 17.7049C28.4428 18.2297 28.6596 18.3879 29.1335 18.3879Z" fill="white"/>
</svg>
